<svg width="200" height="68" viewBox="0 0 200 68" fill="none" xmlns="http://www.w3.org/2000/svg">
<path d="M77.465 17.9318H83.9273L76.8852 48.2399H65.5197L58.4775 17.9318H64.9403L70.2 42.8913H72.2053L77.465 17.9318Z" fill="#0F172A"/>
<path d="M90.0892 39.6377C90.1188 41.0045 90.4753 41.9999 91.1587 42.6239C91.8717 43.2182 92.882 43.5153 94.1896 43.5153C96.9529 43.5153 99.4192 43.4262 101.588 43.2479L102.836 43.1142L102.926 47.5269C99.5085 48.3588 96.4179 48.7749 93.6547 48.7749C90.2973 48.7749 87.8605 47.8834 86.3452 46.1005C84.8295 44.3176 84.0721 41.4205 84.0721 37.4092C84.0721 29.4162 87.3556 25.4196 93.9219 25.4196C100.399 25.4196 103.639 28.7773 103.639 35.4926L103.193 39.6377H90.0892ZM97.7551 35.0915C97.7551 33.3087 97.473 32.0755 96.9085 31.3921C96.3439 30.679 95.3484 30.3224 93.9219 30.3224C92.5255 30.3224 91.53 30.6939 90.9358 31.4367C90.3712 32.1498 90.0744 33.3681 90.0443 35.0915H97.7551Z" fill="#0F172A"/>
<path d="M107.016 48.2399V25.9545H112.944V28.3167C115.44 26.831 117.817 25.8653 120.075 25.4196V31.4367C117.668 31.9418 115.603 32.4618 113.879 32.9966L112.988 33.3087V48.2399H107.016Z" fill="#0F172A"/>
<path d="M135.053 31.0356H129.571V40.1725C129.571 41.064 129.586 41.7028 129.616 42.0891C129.675 42.4457 129.839 42.7576 130.106 43.0251C130.404 43.2925 130.849 43.4262 131.443 43.4262L134.831 43.3371L135.098 48.1063C133.107 48.552 131.592 48.7749 130.552 48.7749C127.878 48.7749 126.05 48.1803 125.07 46.9919C124.089 45.7736 123.599 43.545 123.599 40.3062V31.0356H120.969V25.9545H123.599V19.7592H129.571V25.9545H135.053V31.0356Z" fill="#0F172A"/>
<path d="M138.051 48.2399V25.9545H144.024V48.2399H138.051ZM138.051 23.102V17.0403H144.024V23.102H138.051Z" fill="#0F172A"/>
<path d="M168.841 51.0031C168.841 53.5587 167.861 55.4453 165.9 56.6637C163.939 57.8821 161.279 58.491 157.922 58.491C154.594 58.491 152.023 58.0453 150.211 57.1538C148.428 56.2623 147.536 54.6431 147.536 52.296C147.536 50.4238 148.606 48.6556 150.746 46.9919C149.646 46.2489 149.096 45.1197 149.096 43.6045C149.096 43.0102 149.542 42.0296 150.434 40.6628L150.835 40.0388C148.814 38.5828 147.804 36.4435 147.804 33.6206C147.804 30.7681 148.651 28.703 150.344 27.4253C152.068 26.1476 154.341 25.5088 157.164 25.5088C158.441 25.5088 159.705 25.6574 160.953 25.9545L161.666 26.0882L168.841 25.8653V30.6344L165.499 30.367C166.152 31.3773 166.479 32.3875 166.479 33.3978C166.479 36.3691 165.722 38.4194 164.206 39.5485C162.691 40.6777 160.314 41.2422 157.074 41.2422C156.391 41.2422 155.782 41.1828 155.247 41.0639C154.95 41.8365 154.801 42.4753 154.801 42.9805C154.801 43.4559 155.054 43.7827 155.559 43.961C156.064 44.1393 157.253 44.2433 159.125 44.273C162.869 44.3027 165.424 44.8079 166.791 45.7883C168.158 46.7395 168.841 48.4776 168.841 51.0031ZM153.42 51.6717C153.42 52.9493 154.98 53.5883 158.1 53.5883C161.249 53.5883 162.824 52.8453 162.824 51.3596C162.824 50.5574 162.557 50.0377 162.022 49.8C161.487 49.5919 160.358 49.4731 158.635 49.4431L154.623 49.1314C153.821 49.9336 153.42 50.7803 153.42 51.6717ZM153.776 33.4424C153.776 35.6115 154.905 36.696 157.164 36.696C159.452 36.696 160.596 35.6115 160.596 33.4424C160.596 31.2435 159.452 30.1441 157.164 30.1441C154.905 30.1441 153.776 31.2435 153.776 33.4424Z" fill="#0F172A"/>
<path d="M172.771 28.495C174.346 26.4448 176.976 25.4196 180.661 25.4196C184.345 25.4196 186.975 26.4448 188.549 28.495C190.124 30.5156 190.912 33.3681 190.912 37.0526C190.912 44.8673 187.495 48.7749 180.661 48.7749C173.826 48.7749 170.409 44.8673 170.409 37.0526C170.409 33.3681 171.197 30.5156 172.771 28.495ZM177.362 42.0891C177.986 43.1587 179.086 43.6936 180.661 43.6936C182.235 43.6936 183.32 43.1587 183.914 42.0891C184.538 41.0194 184.85 39.3405 184.85 37.0526C184.85 34.7646 184.538 33.1007 183.914 32.0607C183.32 31.0207 182.235 30.5007 180.661 30.5007C179.086 30.5007 177.986 31.0207 177.362 32.0607C176.768 33.1007 176.471 34.7646 176.471 37.0526C176.471 39.3405 176.768 41.0194 177.362 42.0891Z" fill="#0F172A"/>
<path fill-rule="evenodd" clip-rule="evenodd" d="M35.8244 16.2319C33.1554 15.1263 30.2678 14.6496 27.3851 14.8385C24.5023 15.0275 21.7017 15.877 19.1998 17.3215L16.6755 18.7789L13.7607 13.7303L16.285 12.2729C19.5613 10.3814 23.2288 9.26884 27.0038 9.02144C30.7788 8.774 34.5601 9.39831 38.0553 10.846C41.5504 12.2938 44.6656 14.5261 47.1601 17.3704C49.6542 20.2147 51.461 23.5947 52.4403 27.2489C53.4193 30.9031 53.5448 34.7336 52.8067 38.444C52.0686 42.1544 50.487 45.6453 48.1838 48.6466C45.8807 51.648 42.9183 54.0794 39.5254 55.7525C36.1324 57.4256 31.756 58.296 28.6169 58.296C25.4777 58.296 23.6448 57.8251 21.2376 56.8283C18.8982 55.8592 16.7725 54.439 14.9819 52.6484C13.1914 50.8579 11.7711 48.7318 10.802 46.3924C9.83302 44.0531 9.33423 41.5457 9.33423 39.0135C9.33423 36.4813 9.83302 33.9738 10.802 31.6344C11.7711 29.2949 13.1914 27.1692 14.9819 25.3787C16.7725 23.5881 18.8982 22.1678 21.2376 21.1988C23.5771 20.2297 26.0845 19.731 28.6167 19.731C31.149 19.731 33.6564 20.2297 35.9958 21.1988C38.3353 22.1678 40.461 23.5881 42.2515 25.3787C44.0421 27.1692 45.4623 29.2949 46.4314 31.6344C46.8484 32.6407 47.178 33.678 47.4188 34.7351C47.5363 32.7284 47.3323 30.7101 46.8094 28.7577C46.0614 25.9672 44.6819 23.3861 42.7771 21.2141C40.8723 19.0421 38.4934 17.3374 35.8244 16.2319ZM16.9743 45.7538C17.3049 39.4868 22.4914 34.5068 28.841 34.5068C34.9451 34.5068 39.9743 39.1092 40.6477 45.0332C40.7905 44.7479 40.9232 44.4572 41.0456 44.1617C41.7217 42.5295 42.0697 40.7801 42.0697 39.0135C42.0697 37.2468 41.7217 35.4975 41.0456 33.8653C40.3696 32.2331 39.3786 30.7501 38.1294 29.5008C36.8802 28.2516 35.3971 27.2607 33.7649 26.5846C32.1328 25.9085 30.3834 25.5605 28.6167 25.5605C26.8501 25.5605 25.1007 25.9085 23.4685 26.5846C21.8364 27.2607 20.3533 28.2516 19.1041 29.5008C17.8549 30.7501 16.864 32.2331 16.1879 33.8653C15.5118 35.4975 15.1638 37.2468 15.1638 39.0135C15.1638 40.7801 15.5118 42.5295 16.1879 44.1617C16.4152 44.7104 16.678 45.2422 16.9743 45.7538ZM34.8948 46.3901C34.8948 49.7336 32.1844 52.444 28.841 52.444C25.4975 52.444 22.7871 49.7336 22.7871 46.3901C22.7871 43.0468 25.4975 40.3364 28.841 40.3364C32.1844 40.3364 34.8948 43.0468 34.8948 46.3901Z" fill="#7C3AED"/>
</svg>
